<?xml version="1.0" standalone="no"?>
<!DOCTYPE svg PUBLIC "-//W3C//DTD SVG 20010904//EN"
 "http://www.w3.org/TR/2001/REC-SVG-20010904/DTD/svg10.dtd">
<svg version="1.0" xmlns="http://www.w3.org/2000/svg"
 width="102.000000pt" height="100.000000pt" viewBox="0 0 102.000000 100.000000"
 preserveAspectRatio="xMidYMid meet">

<g transform="translate(0.000000,100.000000) scale(0.100000,-0.100000)"
fill="#000000" stroke="none">
<path d="M199 945 c108 -171 73 -383 -101 -608 l-41 -52 48 45 c152 145 222
329 180 476 -17 62 -61 138 -96 170 -16 14 -13 5 10 -31z"/>
<path d="M373 906 c88 -86 203 -149 300 -167 103 -18 224 19 312 96 l40 35
-60 -35 c-70 -42 -110 -54 -190 -62 -119 -10 -278 50 -416 158 l-64 50 78 -75z"/>
<path d="M948 693 c-141 -146 -208 -293 -194 -427 7 -68 48 -160 96 -216 28
-32 28 -29 -12 47 -35 70 -42 93 -46 160 -8 136 45 275 159 420 27 35 48 63
46 63 -1 0 -23 -21 -49 -47z"/>
<path d="M213 265 c-55 -17 -122 -56 -153 -90 l-25 -27 38 25 c181 122 402 85
642 -105 38 -30 32 -23 -24 31 -157 152 -330 213 -478 166z"/>
</g>
</svg>
